{"title":"French Revolution (2005 History Channel)","uid":5494610,"size":890053414,"categoryP":"video","categoryS":"movies","magnet":"?xt=urn:btih:8b6cc3883387907216fa5edd2fd2e5f98ca47bd6&amp;dn=French+Revolution+%282005+History+Channel%29&amp;tr=udp%3A%2F%2Ftracker.openbittorrent.com%3A80&amp;tr=udp%3A%2F%2Fopen.demonii.com%3A1337&amp;tr=udp%3A%2F%2Ftracker.coppersurfer.tk%3A6969&amp;tr=udp%3A%2F%2Fexodus.desync.com%3A6969","seeders":9,"leechers":0,"uploader":"rambam1776","files":-1,"time":1271190687,"description":"French Revolution (2005 History Channel)\n\nProduct Description (Amazon)\n\nOn July 14, 1789, a mob of angry Parisians stormed the Bastille and seized the King's military stores. A decade of idealism, war, murder, and carnage followed, bringing about the end of feudalism and the rise of equality and a new world order. The French Revolution is a definitive feature-length documentary that encapsulates this heady (and often headless) period in Western civilization. With dramatic reenactments, illustrations, and paintings from the era, plus revealing accounts from journals and expert commentary from historians, The French Revolution vividly unfurls in a maelstrom of violence, discontent, and fundamental change. King Louis XVI, Marie Antoinette, Maximilien Robespierre, and Napoleon Bonaparte lead a cast of thousands in this essential program from THE HISTORY CHANNELÃ‚Â®. Narrated by Edward Herrmann (The Aviator, Gilmore Girls), The French Revolution explores the legacy that--now more than ever--stands as both a warning and a guidepost to a new millennium.\n\nThis Torrent includes both the main feature and a 'making of' featurette.\n\n\nFormat                           : AVI\nFormat/Info                      : Audio Video Interleave\nFile size                        : 699 MiB\nDuration                         : 1h 30mn\nOverall bit rate                 : 1081 Kbps\n\n\nVideo\nID                               : 0\nFormat                           : MPEG-4 Visual\nCodec ID                         : XVID\nCodec ID/Hint                    : XviD\nDuration                         : 1h 30mn\nBit rate                         : 951 Kbps\nWidth                            : 544 pixels\nHeight                           : 352 pixels\nDisplay aspect ratio             : 3:2\nFrame rate                       : 29.970 fps\nResolution                       : 8 bits\nColorimetry                      : 4:2:0\nScan type                        : Progressive\nBits/(Pixel*Frame)               : 0.166\nStream size                      : 615 MiB (88%)\nWriting library                  : XviD 1.2.1 (UTC 2008-12-04)\n\nAudio\nID                               : 1\nFormat                           : MPEG Audio\nFormat version                   : Version 1\nFormat profile                   : Layer 3\nMode                             : Joint stereo\nFormat_Settings_ModeExtension    : MS Stereo\nCodec ID                         : 55\nCodec ID/Hint                    : MP3\nDuration                         : 1h 30mn\nBit rate mode                    : Variable\nBit rate                         : 117 Kbps\nNominal bit rate                 : 128 Kbps\nChannel(s)                       : 2 channels\nSampling rate                    : 48.0 KHz\nStream size                      : 75.5 MiB (11%)\n\nLanguage                         : English - No Subtitles\n &lt;a href=&quot;\nhttp://www.imdb.com/title/tt0444633/&quot; rel=&quot;nofollow&quot; target=&quot;_NEW&quot;&gt;\nhttp://www.imdb.com/title/tt0444633/&lt;/a&gt;\n &lt;a href=&quot;\nhttp://www.amazon.com/French-Revolution-History-Channel/dp/B0007GP836&quot; rel=&quot;nofollow&quot; target=&quot;_NEW&quot;&gt;\nhttp://www.amazon.com/French-Revolution-History-Channel/dp/B0007GP836&lt;/a&gt;\n\nProduct Details\n\n    * Actors: Edward Herrmann, George Ivascu, Rodica Lazar, Tomi Cristin, Phillip Levine\n    * Directors: Doug Shultz\n    * Writers: Doug Shultz, Hilary Sio, Thomas Emil\n    * Producers: Peter Schnall, Doug Shultz, Beth Dietrich, Hilary Sio, Sandya Viswanathan\n    * Format: Color, DVD, NTSC\n    * Language: English (Dolby Digital 2.0)\n    * Region: Region 1 (U.S. and Canada only. Read more about DVD formats.)\n    * Aspect Ratio: 1.33:1\n    * Number of discs: 1\n    * Rating: NR (Not Rated)\n    * Studio: A&amp;E Home Video\n    * DVD Release Date: March 29, 2005\n    * Run Time: 100 minutes\n\n &lt;a href=&quot;\nhttp://bayimg.com/Daldlaaco&quot; rel=&quot;nofollow&quot; target=&quot;_NEW&quot;&gt;\nhttp://bayimg.com/Daldlaaco&lt;/a&gt;\n","torrent":{"xt":"urn:btih:8b6cc3883387907216fa5edd2fd2e5f98ca47bd6","amp;dn":"French+Revolution+%282005+History+Channel%29","amp;tr":["udp%3A%2F%2Ftracker.openbittorrent.com%3A80","udp%3A%2F%2Fopen.demonii.com%3A1337","udp%3A%2F%2Ftracker.coppersurfer.tk%3A6969","udp%3A%2F%2Fexodus.desync.com%3A6969"],"infoHash":"8b6cc3883387907216fa5edd2fd2e5f98ca47bd6","infoHashBuffer":{"type":"Buffer","data":[139,108,195,136,51,135,144,114,22,250,94,221,47,210,229,249,140,164,123,214]},"announce":[],"urlList":[]}}